<?xml version="1.0" encoding="iso-8859-1"?>
<!-- Generator: Adobe Illustrator 19.0.0, SVG Export Plug-In . SVG Version: 6.00 Build 0)  -->
<svg version="1.1" id="Capa_1" xmlns="http://www.w3.org/2000/svg" xmlns:xlink="http://www.w3.org/1999/xlink" x="0px" y="0px"
	 viewBox="0 0 480 480" style="enable-background:new 0 0 480 480;" xml:space="preserve">
<path style="fill:#F4CD57;" d="M144,376v-16c0-8.84-7.16-16-16-16H80c-8.84,0-16,7.16-16,16v16h24h32H144z"/>
<polygon style="fill:#A9CB73;" points="64,456 64,472 144,472 144,456 120,440 120,376 88,376 88,440 "/>
<path style="fill:#F4CD57;" d="M280,376v-16c0-8.84-7.16-16-16-16h-48c-8.84,0-16,7.16-16,16v16h24h32H280z"/>
<polygon style="fill:#A9CB73;" points="200,456 200,472 280,472 280,456 256,440 256,376 224,376 224,440 "/>
<path style="fill:#F4CD57;" d="M416,376v-16c0-8.84-7.16-16-16-16h-48c-8.84,0-16,7.16-16,16v16h24h32H416z"/>
<polygon style="fill:#A9CB73;" points="336,456 336,472 416,472 416,456 392,440 392,376 360,376 360,440 "/>
<polygon style="fill:#EAEAEA;" points="8,264 56,264 120,264 176,264 208,264 272,264 272,232 288,208 288,200 288,168 320,168 
	320,200 320,208 336,232 336,264 376,264 376,232 392,208 392,200 392,168 424,168 424,200 424,208 440,232 440,264 472,264 
	472,136 8,136 "/>
<polygon style="fill:#A9CB73;" points="56,72 88,72 120,72 72,24 24,72 "/>
<path style="fill:#F4CD57;" d="M56,88c0,8.84,7.16,16,16,16s16-7.16,16-16V72H56V88z"/>
<polygon style="fill:#A9CB73;" points="456,72 408,24 360,72 392,72 424,72 "/>
<path style="fill:#F4CD57;" d="M408,104c8.84,0,16-7.16,16-16V72h-32v16C392,96.84,399.16,104,408,104z"/>
<polygon style="fill:#A9CB73;" points="320,208 320,200 288,200 288,208 272,232 272,264 336,264 336,232 "/>
<rect x="288" y="168" style="fill:#F4CD57;" width="32" height="32"/>
<polygon style="fill:#A9CB73;" points="424,208 424,200 392,200 392,208 376,232 376,264 440,264 440,232 "/>
<rect x="392" y="168" style="fill:#F4CD57;" width="32" height="32"/>
<polygon style="fill:#A9CB73;" points="288,72 240,24 192,72 224,72 256,72 "/>
<path style="fill:#F4CD57;" d="M240,104c8.84,0,16-7.16,16-16V72h-32v16C224,96.84,231.16,104,240,104z"/>
<g>
	<path style="fill:#2D2D2D;" d="M59.56,449.344C57.336,450.832,56,453.328,56,456v16c0,4.424,3.584,8,8,8h80c4.416,0,8-3.576,8-8
		v-16c0-2.672-1.336-5.168-3.56-6.656L128,435.72V384h16c4.416,0,8-3.576,8-8v-16c0-13.232-10.768-24-24-24H80
		c-13.232,0-24,10.768-24,24v16c0,4.424,3.584,8,8,8h16v51.72L59.56,449.344z M72,360c0-4.416,3.592-8,8-8h48c4.408,0,8,3.584,8,8v8
		h-16H88H72V360z M112,384v56c0,2.672,1.336,5.168,3.56,6.656L136,460.28V464H72v-3.72l20.44-13.624
		C94.664,445.168,96,442.672,96,440v-56H112z"/>
	<path style="fill:#2D2D2D;" d="M195.56,449.344c-2.224,1.488-3.56,3.984-3.56,6.656v16c0,4.424,3.584,8,8,8h80c4.416,0,8-3.576,8-8
		v-16c0-2.672-1.336-5.168-3.56-6.656L264,435.72V384h16c4.416,0,8-3.576,8-8v-16c0-13.232-10.768-24-24-24h-48
		c-13.232,0-24,10.768-24,24v16c0,4.424,3.584,8,8,8h16v51.72L195.56,449.344z M208,360c0-4.416,3.592-8,8-8h48c4.408,0,8,3.584,8,8
		v8h-16h-32h-16V360z M248,384v56c0,2.672,1.336,5.168,3.56,6.656L272,460.28V464h-64v-3.72l20.44-13.624
		c2.224-1.488,3.56-3.984,3.56-6.656v-56H248z"/>
	<path style="fill:#2D2D2D;" d="M331.56,449.344c-2.224,1.488-3.56,3.984-3.56,6.656v16c0,4.424,3.584,8,8,8h80c4.416,0,8-3.576,8-8
		v-16c0-2.672-1.336-5.168-3.56-6.656L400,435.72V384h16c4.416,0,8-3.576,8-8v-16c0-13.232-10.768-24-24-24h-48
		c-13.232,0-24,10.768-24,24v16c0,4.424,3.584,8,8,8h16v51.72L331.56,449.344z M344,360c0-4.416,3.592-8,8-8h48c4.408,0,8,3.584,8,8
		v8h-16h-32h-16V360z M384,384v56c0,2.672,1.336,5.168,3.56,6.656L408,460.28V464h-64v-3.72l20.44-13.624
		c2.224-1.488,3.56-3.984,3.56-6.656v-56H384z"/>
	<polygon style="fill:#2D2D2D;" points="0,304 24,304 24,480 40,480 40,304 440,304 440,480 456,480 456,304 480,304 480,288 0,288 
			"/>
	<path style="fill:#2D2D2D;" d="M472,128H8c-4.416,0-8,3.576-8,8v128c0,4.424,3.584,8,8,8h168h32h64h64h40h64h32
		c4.416,0,8-3.576,8-8V136C480,131.576,476.416,128,472,128z M48,216v-8h16v8c0,4.416-3.592,8-8,8S48,220.416,48,216z M112,216v-8
		h16v8c0,4.416-3.592,8-8,8S112,220.416,112,216z M184,256v-32h16v32H184z M280,256v-21.576l14.656-21.984
		c0.872-1.312,1.344-2.864,1.344-4.44h16c0,1.576,0.472,3.128,1.344,4.44L328,234.424V256H280z M312,192h-16v-16h16V192z M384,256
		v-21.576l14.656-21.984c0.872-1.312,1.344-2.864,1.344-4.44h16c0,1.576,0.472,3.128,1.344,4.44L432,234.424V256H384z M416,192h-16
		v-16h16V192z M464,256h-16v-24c0-1.576-0.472-3.128-1.344-4.44L432,205.576V168c0-4.424-3.584-8-8-8h-32c-4.416,0-8,3.576-8,8
		v37.576l-14.656,21.984c-0.872,1.312-1.344,2.864-1.344,4.44v24h-24v-24c0-1.576-0.472-3.128-1.344-4.44L328,205.576V168
		c0-4.424-3.584-8-8-8h-32c-4.416,0-8,3.576-8,8v37.576l-14.656,21.984c-0.872,1.312-1.344,2.864-1.344,4.44v24h-48v-40
		c0-4.424-3.584-8-8-8h-32c-4.416,0-8,3.576-8,8v40h-40v-17.472c9.288-3.312,16-12.112,16-22.528v-16c0-4.424-3.584-8-8-8h-32
		c-4.416,0-8,3.576-8,8v16c0,10.416,6.712,19.216,16,22.528V256H64v-17.472c9.288-3.312,16-12.112,16-22.528v-16
		c0-4.424-3.584-8-8-8H40c-4.416,0-8,3.576-8,8v16c0,10.416,6.712,19.216,16,22.528V256H16V144h448V256z"/>
	<path style="fill:#2D2D2D;" d="M72,112c13.232,0,24-10.768,24-24v-8h24c3.232,0,6.152-1.944,7.392-4.936s0.552-6.432-1.736-8.72
		L80,20.688V0H64v20.688L18.344,66.344c-2.288,2.288-2.976,5.728-1.736,8.72C17.848,78.056,20.768,80,24,80h24v8
		C48,101.232,58.768,112,72,112z M80,88c0,4.416-3.592,8-8,8s-8-3.584-8-8v-8h16V88z M72,35.312L100.688,64H88H56H43.312L72,35.312z
		"/>
	<path style="fill:#2D2D2D;" d="M416,0h-16v20.688l-45.656,45.656c-2.288,2.288-2.976,5.728-1.736,8.72S356.768,80,360,80h24v8
		c0,13.232,10.768,24,24,24s24-10.768,24-24v-8h24c3.232,0,6.152-1.944,7.392-4.936s0.552-6.432-1.736-8.72L416,20.688V0z M416,88
		c0,4.416-3.592,8-8,8s-8-3.584-8-8v-8h16V88z M424,64h-32h-12.688L408,35.312L436.688,64H424z"/>
	<path style="fill:#2D2D2D;" d="M240,112c13.232,0,24-10.768,24-24v-8h24c3.232,0,6.152-1.944,7.392-4.936s0.552-6.432-1.736-8.72
		L248,20.688V0h-16v20.688l-45.656,45.656c-2.288,2.288-2.976,5.728-1.736,8.72S188.768,80,192,80h24v8
		C216,101.232,226.768,112,240,112z M248,88c0,4.416-3.592,8-8,8s-8-3.584-8-8v-8h16V88z M240,35.312L268.688,64H256h-32h-12.688
		L240,35.312z"/>
</g>
<g>
</g>
<g>
</g>
<g>
</g>
<g>
</g>
<g>
</g>
<g>
</g>
<g>
</g>
<g>
</g>
<g>
</g>
<g>
</g>
<g>
</g>
<g>
</g>
<g>
</g>
<g>
</g>
<g>
</g>
</svg>
